<svg width="418" height="371" viewBox="0 0 418 371" fill="none" xmlns="http://www.w3.org/2000/svg">
<path d="M187.241 25.9883L220.709 107.441L270.381 34.7267L258.639 122.001L338.014 83.8647L284.208 153.576L372.016 160.236L290.564 193.704L363.278 243.376L276.004 231.635L314.14 311.009L244.429 257.203L237.769 345.012L204.3 263.559L154.628 336.273L166.37 248.999L86.9956 287.135L140.801 217.424L52.993 210.764L134.446 177.296L61.7315 127.624L149.006 139.365L110.869 59.9909L180.58 113.797L187.241 25.9883Z" fill="#DFFE1C"/>
<path d="M191.339 3.40015C199.949 46.2457 197.703 90.9337 170.866 127.937C146.643 161.337 108.806 172.801 84.144 132.921C72.4692 114.042 71.2461 83.8552 88.8031 67.9676C108.363 50.2674 127.705 78.9373 129.54 96.348C133.827 137.013 106.455 180.105 62.4176 188.353C10.2669 198.12 8.63547 143.561 8.98131 143.671" stroke="black" stroke-width="6.21248" stroke-miterlimit="1.5" stroke-linecap="round" stroke-linejoin="round"/>
<path d="M272.66 214.929C273.084 209.813 275.318 205.091 279.552 202.075C274.136 200.196 273.076 194.639 273.354 189.464C271.865 195.575 270.031 201.355 262.873 201.911C269.864 203.504 272.09 207.971 272.66 214.929Z" fill="white"/>
<path d="M279.807 201.897C275.408 204.903 273.093 209.711 272.66 214.929C272.09 207.971 269.864 203.504 262.873 201.911C270.031 201.355 271.865 195.575 273.354 189.464C273.074 194.668 274.148 200.259 279.645 202.107" stroke="black" stroke-width="6.43846" stroke-miterlimit="1.5" stroke-linecap="round" stroke-linejoin="round"/>
<path d="M231.32 152.169C231.735 152.882 232.112 153.644 232.577 154.327" stroke="black" stroke-width="6.43846" stroke-miterlimit="1.5" stroke-linecap="round" stroke-linejoin="round"/>
<path d="M236.675 161.427C240.855 168.703 245.639 175.818 249.361 183.335" stroke="black" stroke-width="6.43846" stroke-miterlimit="1.5" stroke-linecap="round" stroke-linejoin="round"/>
<path d="M248.389 136.077C252.555 147.342 255.599 159.128 260.109 170.249" stroke="black" stroke-width="6.43846" stroke-miterlimit="1.5" stroke-linecap="round" stroke-linejoin="round"/>
<path d="M273.586 131.994C273.748 139.145 273.898 146.295 274.053 153.442" stroke="black" stroke-width="6.43846" stroke-miterlimit="1.5" stroke-linecap="round" stroke-linejoin="round"/>
<path d="M274.125 162.198C274.207 163.484 274.224 164.772 274.298 166.058" stroke="black" stroke-width="6.43846" stroke-miterlimit="1.5" stroke-linecap="round" stroke-linejoin="round"/>
<path d="M296.867 155.234C291.549 163.285 286.253 171.326 281.114 179.498M306.468 140.261C304.187 145.849 300.149 150.269 296.868 155.236" stroke="black" stroke-width="6.43846" stroke-miterlimit="1.5" stroke-linecap="round" stroke-linejoin="round"/>
<path d="M301.667 176.917C305.776 173.611 309.659 169.603 313.303 165.789" stroke="black" stroke-width="6.43846" stroke-miterlimit="1.5" stroke-linecap="round" stroke-linejoin="round"/>
<path d="M318.482 161.147C320.014 159.632 321.663 158.247 323.197 156.733" stroke="black" stroke-width="6.43846" stroke-miterlimit="1.5" stroke-linecap="round" stroke-linejoin="round"/>
<path d="M339.523 179.811C327.498 186.163 313.921 191.818 300.933 196.105" stroke="black" stroke-width="6.43846" stroke-miterlimit="1.5" stroke-linecap="round" stroke-linejoin="round"/>
<path d="M245.728 194.773C233.968 187.821 221.876 181.663 209.837 175.245" stroke="black" stroke-width="6.43846" stroke-miterlimit="1.5" stroke-linecap="round" stroke-linejoin="round"/>
<path d="M243.182 205.298C240.794 205.381 238.414 205.477 236.038 205.728" stroke="black" stroke-width="6.43846" stroke-miterlimit="1.5" stroke-linecap="round" stroke-linejoin="round"/>
<path d="M227.423 206.222C221.066 206.561 214.617 206.497 208.291 207.199" stroke="black" stroke-width="6.43846" stroke-miterlimit="1.5" stroke-linecap="round" stroke-linejoin="round"/>
<path d="M301.524 209C304.381 209.095 307.628 209.281 310.467 209.86" stroke="black" stroke-width="6.43846" stroke-miterlimit="1.5" stroke-linecap="round" stroke-linejoin="round"/>
<path d="M319.687 211.979C328.929 212.95 337.927 215.474 347.041 217.053" stroke="black" stroke-width="6.43846" stroke-miterlimit="1.5" stroke-linecap="round" stroke-linejoin="round"/>
<path d="M254.177 213.864C240.13 224.522 225.068 233.589 211.061 244.332" stroke="black" stroke-width="6.43846" stroke-miterlimit="1.5" stroke-linecap="round" stroke-linejoin="round"/>
<path d="M257.526 227.596C251.018 236.451 246.781 246.849 241.464 256.398" stroke="black" stroke-width="6.43846" stroke-miterlimit="1.5" stroke-linecap="round" stroke-linejoin="round"/>
<path d="M254.245 278.843C255.417 272.487 257.775 266.234 259.579 260.043C260.752 256.019 261.422 251.661 263.303 247.881" stroke="black" stroke-width="6.43846" stroke-miterlimit="1.5" stroke-linecap="round" stroke-linejoin="round"/>
<path d="M266.689 240.485C267.197 239.214 267.521 237.869 268.073 236.617" stroke="black" stroke-width="6.43846" stroke-miterlimit="1.5" stroke-linecap="round" stroke-linejoin="round"/>
<path d="M278.091 230.923C281.784 243.809 284.356 257.048 287.72 270.039" stroke="black" stroke-width="6.43846" stroke-miterlimit="1.5" stroke-linecap="round" stroke-linejoin="round"/>
<path d="M292.567 223.255C298.487 229.784 305.86 235.096 311.543 241.776" stroke="black" stroke-width="6.43846" stroke-miterlimit="1.5" stroke-linecap="round" stroke-linejoin="round"/>
<path d="M319.945 248.985C321.433 250.711 323.162 252.346 324.822 253.904" stroke="black" stroke-width="6.43846" stroke-miterlimit="1.5" stroke-linecap="round" stroke-linejoin="round"/>
</svg>
