<svg width="53" height="39" viewBox="0 0 53 39" fill="none" xmlns="http://www.w3.org/2000/svg">
<path d="M11.0301 9.31983H40.9815M11.0301 9.31983C9.47696 9.31983 8.69843 9.31983 8.1052 9.6221C7.58337 9.88798 7.15942 10.3119 6.89354 10.8338C6.59127 11.427 6.59127 12.2042 6.59127 13.7573V28.1784C6.59127 31.2847 6.59127 32.8382 7.19581 34.0247C7.72757 35.0683 8.57547 35.9169 9.61912 36.4486C10.8044 37.0526 12.3569 37.0526 15.4572 37.0526H36.5502C39.6505 37.0526 41.2007 37.0526 42.3861 36.4486C43.4297 35.9169 44.2814 35.0682 44.8132 34.0245C45.4171 32.8392 45.4171 31.2887 45.4171 28.1884V13.7322C45.4171 12.1957 45.4171 11.4238 45.1165 10.8338C44.8506 10.3119 44.4247 9.88798 43.9029 9.6221C43.3097 9.31983 42.5347 9.31983 40.9815 9.31983M11.0301 9.31983H6.52279C4.16802 9.31983 2.99132 9.31983 2.32302 8.90817C1.43118 8.35881 0.925516 7.35301 1.01493 6.30936C1.08198 5.52663 1.78288 4.57999 3.18697 2.68447C3.59307 2.13623 3.79618 1.86204 4.04475 1.65269C4.37619 1.37356 4.7695 1.17532 5.19109 1.07514C5.50728 1 5.84666 1 6.52898 1H45.4779C46.1602 1 46.5005 1 46.8167 1.07514C47.2383 1.17532 47.6315 1.37356 47.9629 1.65269C48.2115 1.86204 48.4153 2.13495 48.8214 2.68319C50.2255 4.57869 50.9276 5.52648 50.9946 6.3092C51.084 7.35285 50.5765 8.35881 49.6847 8.90817C49.0164 9.31983 47.8369 9.31983 45.4821 9.31983H40.9815M20.4576 23.1862H31.5508" stroke="black" stroke-width="2" stroke-linecap="round" stroke-linejoin="round"/>
</svg>
