<svg width="43" height="42" viewBox="0 0 43 42" fill="none" xmlns="http://www.w3.org/2000/svg">
<path d="M21.4322 0C9.59969 0 0.00476074 9.59325 0.00476074 21.4275C0.00476074 30.8948 6.14437 38.9267 14.6582 41.7601C15.729 41.9584 16.1223 41.2952 16.1223 40.7292C16.1223 40.2184 16.1023 38.5303 16.0932 36.7399C10.1319 38.036 8.87404 34.2117 8.87404 34.2117C7.89934 31.7349 6.49493 31.0765 6.49493 31.0765C4.5509 29.7465 6.64147 29.7738 6.64147 29.7738C8.79321 29.925 9.92621 31.982 9.92621 31.982C11.8373 35.2578 14.9389 34.3107 16.1616 33.7633C16.3539 32.3782 16.9093 31.4331 17.522 30.898C12.7628 30.3561 7.75952 28.5188 7.75952 20.3084C7.75952 17.9691 8.59659 16.0575 9.96739 14.557C9.74488 14.0172 9.01151 11.8379 10.1749 8.88642C10.1749 8.88642 11.9743 8.3105 16.069 11.0829C17.7781 10.6079 19.6112 10.37 21.4322 10.3619C23.2532 10.37 25.0877 10.6079 26.8001 11.0829C30.89 8.3105 32.6868 8.88642 32.6868 8.88642C33.8531 11.8379 33.1194 14.0172 32.8969 14.557C34.2707 16.0575 35.1021 17.969 35.1021 20.3084C35.1021 28.5382 30.0894 30.3505 25.3181 30.8809C26.0866 31.5459 26.7714 32.85 26.7714 34.8489C26.7714 37.7159 26.7465 40.0234 26.7465 40.7292C26.7465 41.2994 27.1322 41.9676 28.2185 41.7572C36.7276 38.9207 42.8595 30.8916 42.8595 21.4275C42.8595 9.59325 33.2659 0 21.4322 0Z" fill="#161614"/>
<path d="M8.03008 30.524C7.98303 30.6304 7.81531 30.6623 7.66289 30.5894C7.50744 30.5195 7.42005 30.3743 7.47047 30.2674C7.51668 30.1578 7.6844 30.1272 7.83951 30.2008C7.9953 30.2706 8.08403 30.4171 8.03008 30.524ZM9.08411 31.4644C8.98193 31.5592 8.78212 31.5152 8.6465 31.3654C8.50634 31.216 8.48013 31.0164 8.58381 30.9201C8.68918 30.8255 8.88295 30.8697 9.02344 31.0192C9.16359 31.1703 9.19082 31.3688 9.08394 31.4646M9.80723 32.6677C9.67582 32.7589 9.46105 32.6734 9.32845 32.4828C9.1972 32.2924 9.1972 32.0639 9.33131 31.9723C9.46441 31.8807 9.67582 31.963 9.81026 32.1521C9.94134 32.3458 9.94134 32.5744 9.80706 32.6678M11.03 34.0613C10.9125 34.1907 10.6624 34.1561 10.4793 33.9793C10.2921 33.8066 10.2398 33.5614 10.3576 33.4318C10.4764 33.3021 10.728 33.3385 10.9125 33.5138C11.0985 33.6862 11.1553 33.9333 11.0301 34.0613M12.6103 34.5319C12.5587 34.6996 12.3178 34.7759 12.0751 34.7046C11.8328 34.6312 11.6741 34.4346 11.723 34.265C11.7734 34.0961 12.0154 34.0166 12.26 34.0929C12.5019 34.166 12.6609 34.3611 12.6105 34.5319M14.4092 34.7313C14.4152 34.9081 14.2094 35.0547 13.9546 35.0579C13.6983 35.0634 13.4911 34.9204 13.4884 34.7466C13.4884 34.5682 13.6896 34.423 13.9457 34.4188C14.2004 34.4137 14.4092 34.5557 14.4092 34.7313ZM16.1761 34.6636C16.2067 34.836 16.0295 35.0132 15.7766 35.0602C15.5279 35.1056 15.2977 34.9992 15.2659 34.8283C15.235 34.6515 15.4155 34.4746 15.6637 34.4287C15.9171 34.3847 16.1438 34.4883 16.1761 34.6636Z" fill="#161614"/>
</svg>
